# xmcd
#
# Track frame offsets:
#	150
#	15252
#	28232
#	46420
#	57664
#	71352
#	86292
#	99970
#	113470
#	125547
#	136655
#	146852
#	159592
#	173925
#	186972
#	200607
#	209905
#	227610
#	242170
#	256000
#
# Disc length: 3627 seconds
#
# Revision: 1
# Processed by: cddbd v1.5.2PL0 Copyright (c) Steve Scherf et al.
# Submitted via: audiograbber 1.83.01
#
DISCID=160e2914
DTITLE=Aikamiehet - 20 Suosikkia - Iltatuulen Viesti
DYEAR=1996
DGENRE=Oldies
TTITLE0=Iltatuulen Viesti
TTITLE1=Musta Rudolf
TTITLE2=Kuolleet Lehdet
TTITLE3=Sammuva Hiillos
TTITLE4=Uneksit Vain
TTITLE5=Laulajan Tarina
TTITLE6=Kotirannan Heila
TTITLE7=Sataman Valot
TTITLE8=Anjusha
TTITLE9=Kuule Mua Rakkain
TTITLE10=Kultainen Nuoruus
TTITLE11=Virran Viemää
TTITLE12=Tulipunaruusut
TTITLE13=Amurin Aallot
TTITLE14=Pettymys
TTITLE15=Ankkurit Ylös
TTITLE16=Taikayö
TTITLE17=Villiruusu
TTITLE18=Sulle Kauneimmat Lauluni Laulan
TTITLE19=Tämä Taivas, Tämä Maa
EXTD=TR.
EXTT0=
EXTT1=
EXTT2=
EXTT3=
EXTT4=
EXTT5=
EXTT6=
EXTT7=
EXTT8=
EXTT9=
EXTT10=
EXTT11=
EXTT12=
EXTT13=
EXTT14=
EXTT15=
EXTT16=
EXTT17=
EXTT18=
EXTT19=
PLAYORDER=
